<?xml version="1.0" standalone="no"?>
<!DOCTYPE svg PUBLIC "-//W3C//DTD SVG 20010904//EN"
 "http://www.w3.org/TR/2001/REC-SVG-20010904/DTD/svg10.dtd">
<svg version="1.0" xmlns="http://www.w3.org/2000/svg"
 width="300.000000pt" height="300.000000pt" viewBox="0 0 300.000000 300.000000"
 preserveAspectRatio="xMidYMid meet">
<metadata>
Created by potrace 1.14, written by Peter Selinger 2001-2017
</metadata>
<g transform="translate(0.000000,300.000000) scale(0.100000,-0.100000)"
fill="#000000" stroke="none">
<path d="M1248 2784 c-147 -26 -295 -96 -392 -184 -55 -51 -96 -118 -96 -158
0 -15 -6 -22 -20 -22 -35 0 -108 -78 -145 -154 -61 -123 -87 -248 -89 -416
l-1 -145 39 -100 c21 -55 47 -111 57 -124 11 -13 19 -35 20 -50 0 -14 8 10 18
54 9 44 21 78 26 75 6 -3 9 -45 7 -100 -6 -168 55 -290 174 -349 59 -30 180
-40 260 -22 107 24 204 127 245 261 11 36 18 86 17 110 -3 38 0 46 22 57 30
17 162 12 202 -7 34 -16 39 -28 27 -79 -13 -59 6 -172 41 -247 34 -70 77 -111
160 -152 47 -23 67 -27 150 -27 86 0 100 3 148 29 57 32 152 125 152 150 0 8
5 18 11 22 32 20 -28 -301 -81 -432 -47 -116 -98 -189 -201 -291 -167 -164
-310 -247 -443 -260 -97 -9 -288 14 -358 42 -192 78 -457 382 -515 590 -8 28
-20 91 -28 140 -12 80 -44 236 -58 290 -3 11 -3 -36 0 -105 3 -69 9 -127 12
-130 4 -3 15 -41 25 -85 73 -322 124 -412 314 -563 184 -146 297 -192 487
-199 152 -6 224 10 359 79 157 80 245 145 308 229 40 54 99 162 113 209 14 49
69 185 79 199 6 7 12 25 14 40 1 14 17 78 34 141 27 98 37 120 66 148 19 18
31 36 28 40 -12 11 -40 -13 -61 -51 -11 -20 -24 -37 -29 -37 -19 0 3 125 32
185 111 229 126 289 119 485 -6 172 -34 289 -98 417 -48 95 -165 228 -263 297
-235 167 -607 251 -888 200z m-326 -624 c30 -38 157 -133 220 -166 205 -104
520 -139 955 -105 100 8 185 12 188 9 5 -5 34 -288 35 -340 0 -24 -27 -23 -98
3 -218 80 -428 78 -537 -6 l-35 -26 -56 20 c-61 23 -146 27 -206 9 -37 -11
-39 -10 -71 24 -66 72 -177 108 -333 108 -57 0 -131 -6 -166 -14 -35 -8 -82
-17 -106 -20 -49 -7 -49 -17 -5 134 70 243 102 325 146 373 33 34 40 34 69 -3z
m233 -531 c96 -29 153 -84 161 -154 8 -63 -23 -172 -66 -237 -77 -116 -236
-158 -374 -99 -52 23 -98 70 -128 131 -33 67 -31 195 4 271 25 54 63 92 103
102 11 2 68 5 126 6 83 1 122 -4 174 -20z m953 -72 c67 -18 108 -57 127 -121
39 -131 -6 -284 -103 -349 -58 -39 -107 -50 -185 -44 -86 7 -164 44 -207 95
-30 37 -70 127 -70 159 0 16 67 93 81 93 4 0 5 -19 2 -42 -3 -32 1 -52 17 -76
18 -29 24 -32 53 -28 17 3 66 8 107 11 41 4 81 11 88 17 14 12 16 86 2 122 -7
20 -6 26 3 26 20 0 95 -68 103 -93 7 -22 8 -22 14 3 24 93 -185 193 -314 150
-42 -14 -146 -104 -147 -129 0 -9 -5 -3 -10 14 -28 95 35 175 166 209 35 9
218 -2 273 -17z m-248 -142 c17 -20 5 -45 -20 -45 -11 0 -23 7 -26 15 -6 15
11 45 26 45 4 0 13 -7 20 -15z"/>
<path d="M992 1854 c-85 -22 -172 -78 -172 -110 0 -21 31 -17 95 12 85 39 176
44 272 13 74 -23 75 -23 89 -4 30 41 7 64 -91 89 -72 19 -123 19 -193 0z"/>
<path d="M1852 1819 c-67 -13 -97 -31 -100 -61 -4 -35 21 -42 84 -23 57 17
143 19 195 5 20 -6 62 -28 94 -51 53 -37 85 -44 85 -19 0 16 -68 87 -105 110
-72 45 -158 58 -253 39z"/>
<path d="M975 1551 c-57 -16 -84 -30 -122 -64 -21 -18 -53 -43 -70 -56 -18
-12 -33 -31 -33 -41 0 -32 18 -32 35 0 11 21 21 30 31 26 10 -4 25 6 41 24 27
33 72 60 98 60 14 0 14 -3 0 -30 -8 -16 -15 -52 -15 -79 0 -44 3 -51 23 -56
123 -27 146 -31 165 -24 15 6 24 4 30 -7 8 -14 12 -12 29 10 21 26 38 100 28
116 -3 6 0 7 7 5 7 -3 25 -24 40 -48 18 -27 28 -36 28 -24 0 43 -78 145 -132
173 -34 18 -141 26 -183 15z m74 -75 c25 -30 -16 -67 -44 -40 -18 19 -19 26
-3 42 16 16 33 15 47 -2z"/>
<path d="M520 1426 c0 -9 5 -16 10 -16 6 0 19 -15 30 -32 11 -18 20 -29 20
-25 0 14 -28 63 -44 76 -13 11 -16 11 -16 -3z"/>
<path d="M1340 972 c0 -26 26 -65 51 -78 39 -20 119 -18 145 4 24 19 44 53 44
74 0 8 -7 4 -18 -8 -25 -32 -55 -44 -106 -44 -36 0 -52 6 -81 31 -19 17 -35
26 -35 21z"/>
<path d="M1050 826 c0 -2 11 -29 25 -60 44 -99 158 -200 262 -231 57 -17 74
-19 53 -4 -12 8 -10 9 10 5 14 -3 36 -6 50 -7 23 0 23 -1 5 -9 -31 -13 32 -13
97 1 107 23 227 108 269 191 35 69 41 67 -173 62 -158 -3 -220 0 -338 16 -80
11 -161 25 -180 30 -35 10 -80 13 -80 6z m425 -81 c120 -7 145 -12 145 -27 0
-14 -289 -4 -345 12 -74 22 -66 33 20 26 44 -3 125 -8 180 -11z"/>
<path d="M1580 450 c-8 -5 -10 -10 -5 -10 6 0 17 5 25 10 8 5 11 10 5 10 -5 0
-17 -5 -25 -10z"/>
</g>
</svg>
